<?xml version="1.0" encoding="UTF-8"?>
<svg width="64px" height="74px" viewBox="0 0 64 74" version="1.1" xmlns="http://www.w3.org/2000/svg" xmlns:xlink="http://www.w3.org/1999/xlink">
    <!-- Generator: Sketch 63 (92445) - https://sketch.com -->
    <title>logo/compare-credit/logomark</title>
    <desc>Created with Sketch.</desc>
    <g id="logo/compare-credit/logomark" stroke="none" stroke-width="1" fill="none" fill-rule="evenodd">
        <g id="mark">
            <polygon id="Fill-29" fill="#21A3FC" points="49.3522059 74.2586765 63.9886765 74.2586765 63.9886765 23.6905882 49.3522059 23.6905882"></polygon>
            <polygon id="Fill-30" fill="#90D1FD" points="49.3522059 37.0748529 63.9886765 37.0748529 63.9886765 23.6925 49.3522059 23.6925"></polygon>
            <polygon id="Fill-32" fill="#0047AB" points="0.00764705882 74.2586765 14.6441176 74.2586765 14.6441176 23.6905882 0.00764705882 23.6905882"></polygon>
            <polygon id="Fill-33" fill="#7FA3D5" points="0.00764705882 37.0748529 14.6441176 37.0748529 14.6441176 23.6925 0.00764705882 23.6925"></polygon>
            <polygon id="Fill-35" fill="#3ED14A" points="24.6866176 74.2586765 39.3230882 74.2586765 39.3230882 23.6905882 24.6866176 23.6905882"></polygon>
            <polygon id="Fill-36" fill="#9EE8A4" points="24.6866176 44.7219118 39.3230882 44.7219118 39.3230882 23.6925 24.6866176 23.6925"></polygon>
            <polygon id="Fill-38" fill="#FDCA41" points="0.00764705882 13.6805882 63.9886765 13.6805882 63.9886765 -4.75436683e-14 0.00764705882 -4.75436683e-14"></polygon>
            <rect id="Rectangle" fill="#A8C4EB" x="-6.79195262e-15" y="36.3231471" width="14.6441176" height="1.91176471"></rect>
            <rect id="Rectangle-Copy-6" fill="#BEE0F7" x="49.3426471" y="36.3231471" width="14.6441176" height="1.91176471"></rect>
            <rect id="Rectangle-Copy-8" fill="#B1F3B7" x="24.6808824" y="43.9702059" width="14.6441176" height="1.91176471"></rect>
        </g>
    </g>
</svg>